<?xml version="1.0" encoding="utf-8"?>
<!-- Generator: Adobe Illustrator 16.0.0, SVG Export Plug-In . SVG Version: 6.00 Build 0)  -->
<!DOCTYPE svg PUBLIC "-//W3C//DTD SVG 1.1//EN" "http://www.w3.org/Graphics/SVG/1.1/DTD/svg11.dtd" [
	<!ENTITY ns_extend "http://ns.adobe.com/Extensibility/1.0/">
	<!ENTITY ns_ai "http://ns.adobe.com/AdobeIllustrator/10.0/">
	<!ENTITY ns_graphs "http://ns.adobe.com/Graphs/1.0/">
	<!ENTITY ns_vars "http://ns.adobe.com/Variables/1.0/">
	<!ENTITY ns_imrep "http://ns.adobe.com/ImageReplacement/1.0/">
	<!ENTITY ns_sfw "http://ns.adobe.com/SaveForWeb/1.0/">
	<!ENTITY ns_custom "http://ns.adobe.com/GenericCustomNamespace/1.0/">
	<!ENTITY ns_adobe_xpath "http://ns.adobe.com/XPath/1.0/">
]>
<svg version="1.1"
	 id="Layer_1" xmlns:x="&ns_extend;" xmlns:i="&ns_ai;" xmlns:graph="&ns_graphs;" shape-rendering="geometricPrecision" text-rendering="geometricPrecision" image-rendering="optimizeQuality"
	 xmlns="http://www.w3.org/2000/svg" xmlns:xlink="http://www.w3.org/1999/xlink" x="0px" y="0px" width="1038.412px"
	 height="1038.25px" viewBox="83.319 415.529 1038.412 1038.25" enable-background="new 83.319 415.529 1038.412 1038.25"
	 xml:space="preserve">
<metadata  id="CorelCorpID_0Corel-Layer">
	<sfw  xmlns="&ns_sfw;">
		<slices></slices>
		<sliceSourceBounds  height="1038.25" width="1038.412" x="-209.682" y="-165.279" bottomLeftOrigin="true"></sliceSourceBounds>
	</sfw>
</metadata>
<g id="Camada_x0020_1">
	<g id="_2212535384192">
		<path fill="#BDBDBD" d="M602.526,415.529c286.699,0,519.205,232.507,519.205,519.207c0,286.698-232.506,519.044-519.205,519.044
			c-286.7,0-519.207-232.345-519.207-519.044S315.825,415.529,602.526,415.529z"/>
		<g id="_309899184">
			<g>
				<path id="_3768993841" fill="#AAAAAA" d="M886.465,656.636l233.317,233.318c0.488,7.139,0.976,14.278,1.299,21.579
					L886.465,676.917V656.636z"/>
				<path id="_376899528" fill="#AAAAAA" d="M886.465,676.917l234.617,234.616c0.161,3.245,0.323,6.489,0.485,9.734L877.055,676.917
					H886.465z"/>
				<path id="_376901208" fill="#AAAAAA" d="M545.737,676.917l510.445,510.282c-1.137,2.108-2.271,4.057-3.408,6.004
					L536.489,676.917H545.737z"/>
				<path id="_376900656" fill="#AAAAAA" d="M877.055,1210.563l91.834,91.834c-15.25,15.414-31.639,29.692-48.836,42.996
					l-134.832-134.83H877.055z"/>
				<polygon id="_376900752" fill="#AAAAAA" points="785.221,1210.563 920.053,1345.396 920.053,1345.396 				"/>
				<path id="_376900680" fill="#AAAAAA" d="M785.221,1210.563l134.832,134.83c-0.813,0.649-1.785,1.3-2.599,1.947l-134.506-134.507
					l0.486-0.162h0.324l0.485-0.323l0.326-0.162l0.162-0.325l0.324-0.324v-0.485L785.221,1210.563z"/>
				<path id="_376901280" fill="#AAAAAA" d="M637.735,1210.563l191.295,191.295c-18.336,8.924-37.317,16.874-56.951,23.525
					l-214.821-214.82H637.735z"/>
				<path id="_376900704" fill="#AAAAAA" d="M639.842,1212.835l189.188,189.188c-0.162,0-0.488,0.161-0.649,0.161l-189.996-189.997
					l0.323,0.162l0.324,0.324h0.324L639.842,1212.835z"/>
				<path id="_376900800" fill="#AAAAAA" d="M322.802,841.44l541.596,541.597c-0.973,0.487-1.783,0.974-2.596,1.461L318.584,841.44
					H322.802z"/>
				<path id="_376900872" fill="#AAAAAA" d="M557.257,1210.563l214.821,214.82c-0.323,0.163-0.647,0.325-0.973,0.487
					l-215.309-215.309h0.162h0.161h0.162h0.325h0.162h0.162h0.162L557.257,1210.563L557.257,1210.563z"/>
				<path id="_376901016" fill="#AAAAAA" d="M555.797,1210.563l215.309,215.309c-52.895,18.172-109.521,27.907-168.58,27.907
					c-12.656,0-25.312-0.486-37.643-1.298l-241.917-241.918H555.797z"/>
				<path id="_376901112" fill="#AAAAAA" d="M782.948,1212.835l134.506,134.507c-27.42,20.931-57.11,39.267-88.426,54.681
					l-189.188-189.188H782.948z"/>
				<path id="_376901400" fill="#AAAAAA" d="M877.055,676.917l244.514,244.352c0,4.382,0.162,8.925,0.162,13.468
					c0,143.593-58.41,273.719-152.842,367.663l-91.834-91.836V676.917z"/>
			</g>
			<path id="_309899016" fill="#AAAAAA" d="M557.257,656.636h308.278h20.931v20.281h-9.41v533.646h-91.834l0,0
				c0,1.298-0.976,2.271-2.271,2.271H639.842c-1.136,0-2.107-0.974-2.107-2.271l0,0h-80.478c-0.486,0-0.975,0-1.46,0H322.965
				l-0.163-369.123h-4.218v-20.281h227.152V676.917h-9.249v-20.281H557.257L557.257,656.636z"/>
		</g>
		<path fill="none" d="M602.526,415.529c286.699,0,519.205,232.507,519.205,519.207c0,286.698-232.506,519.044-519.205,519.044
			c-286.7,0-519.207-232.345-519.207-519.044S315.825,415.529,602.526,415.529z"/>
		<path fill="#1E88E5" d="M334.323,822.457h221.475c6.489,0,11.52,5.192,11.52,11.52v365.067c0,6.49-5.029,11.52-11.52,11.52
			H322.965l-0.163-376.587C322.802,827.649,327.832,822.457,334.323,822.457L334.323,822.457z"/>
		<path fill="#42A5F5" d="M557.257,656.636h308.278c6.49,0,11.521,5.03,11.521,11.521v542.407H545.737V668.155
			C545.737,661.666,550.928,656.636,557.257,656.636L557.257,656.636z M780.678,1187.522h73.338l0,0H780.678z"/>
		<polygon fill="#B2EBF2" points="381.863,1077.03 427.942,1077.03 433.782,1077.03 433.782,1082.871 433.782,1128.951 
			433.782,1134.792 427.942,1134.792 381.863,1134.792 376.021,1134.792 376.021,1128.951 376.021,1082.871 376.021,1077.03 		"/>
		<path fill="#FFF8E1" d="M381.863,1074.921h46.08h5.841c1.137,0,2.109,0.975,2.109,2.109v5.841v46.08v5.841
			c0,1.136-0.974,2.109-2.109,2.109h-5.841h-46.08h-5.841c-1.136,0-2.109-0.975-2.109-2.109v-5.841v-46.08v-5.841
			c0-1.137,0.975-2.109,2.109-2.109H381.863z M427.942,1079.14h-46.08h-3.57v3.731v46.08v3.568h3.57h46.08h3.569v-3.568v-46.08
			v-3.731H427.942z"/>
		<polygon fill="#B2EBF2" points="381.863,987.63 427.942,987.63 433.782,987.63 433.782,993.471 433.782,1039.713 
			433.782,1045.392 427.942,1045.392 381.863,1045.392 376.021,1045.392 376.021,1039.713 376.021,993.471 376.021,987.63 		"/>
		<path fill="#FFF8E1" d="M381.863,985.521h46.08h5.841c1.137,0,2.109,0.975,2.109,2.109v5.841v46.242v5.679
			c0,1.299-0.974,2.271-2.109,2.271h-5.841h-46.08h-5.841c-1.136,0-2.109-0.975-2.109-2.271v-5.679v-46.242v-5.841
			c0-1.136,0.975-2.109,2.109-2.109H381.863z M427.942,989.901h-46.08h-3.57v3.568v46.242v3.569h3.57h46.08h3.569v-3.569V993.47
			v-3.568H427.942L427.942,989.901z"/>
		<polygon fill="#B2EBF2" points="427.942,898.391 433.782,898.391 433.782,904.07 433.782,950.312 433.782,956.152 
			427.942,956.152 381.863,956.152 376.021,956.152 376.021,950.312 376.021,904.07 376.021,898.391 381.863,898.391 		"/>
		<path fill="#FFF8E1" d="M427.942,896.281h5.841c1.137,0,2.109,0.812,2.109,2.108v5.681v46.241v5.841
			c0,1.136-0.974,2.108-2.109,2.108h-5.841h-46.08h-5.841c-1.136,0-2.109-0.974-2.109-2.108v-5.841V904.07v-5.681
			c0-1.298,0.975-2.108,2.109-2.108h5.841H427.942z M431.511,900.5h-3.569h-46.08h-3.57v3.57v46.241v3.568h3.57h46.08h3.569v-3.568
			V904.07V900.5L431.511,900.5z"/>
		<polygon fill="#B2EBF2" points="462.177,1077.03 508.257,1077.03 514.098,1077.03 514.098,1082.871 514.098,1128.951 
			514.098,1134.792 508.257,1134.792 462.177,1134.792 456.336,1134.792 456.336,1128.951 456.336,1082.871 456.336,1077.03 		"/>
		<path fill="#FFF8E1" d="M462.177,1074.921h46.08h5.841c1.136,0,2.109,0.975,2.109,2.109v5.841v46.08v5.841
			c0,1.136-0.975,2.109-2.109,2.109h-5.841h-46.08h-5.841c-1.137,0-2.109-0.975-2.109-2.109v-5.841v-46.08v-5.841
			c0-1.137,0.974-2.109,2.109-2.109H462.177z M508.257,1079.14h-46.08h-3.569v3.731v46.08v3.568h3.569h46.08h3.569v-3.568v-46.08
			v-3.731H508.257z"/>
		<polygon fill="#B2EBF2" points="456.336,987.63 462.177,987.63 508.257,987.63 514.098,987.63 514.098,993.471 514.098,1039.713 
			514.098,1045.392 508.257,1045.392 462.177,1045.392 456.336,1045.392 456.336,1039.713 456.336,993.471 		"/>
		<path fill="#FFF8E1" d="M456.336,985.521h5.841h46.08h5.841c1.136,0,2.109,0.975,2.109,2.109v5.841v46.242v5.679
			c0,1.299-0.975,2.271-2.109,2.271h-5.841h-46.08h-5.841c-1.137,0-2.109-0.975-2.109-2.271v-5.679v-46.242v-5.841
			C454.227,986.494,455.199,985.521,456.336,985.521z M462.177,989.901h-3.569v3.568v46.242v3.569h3.569h46.08h3.569v-3.569V993.47
			v-3.568h-3.569H462.177L462.177,989.901z"/>
		<polygon fill="#B2EBF2" points="462.177,898.391 508.257,898.391 514.098,898.391 514.098,904.07 514.098,950.312 
			514.098,956.152 508.257,956.152 462.177,956.152 456.336,956.152 456.336,950.312 456.336,904.07 456.336,898.391 		"/>
		<path fill="#FFF8E1" d="M462.177,896.281h46.08h5.841c1.136,0,2.109,0.812,2.109,2.108v5.681v46.241v5.841
			c0,1.136-0.975,2.108-2.109,2.108h-5.841h-46.08h-5.841c-1.137,0-2.109-0.974-2.109-2.108v-5.841V904.07v-5.681
			c0-1.298,0.974-2.108,2.109-2.108H462.177z M508.257,900.5h-46.08h-3.569v3.57v46.241v3.568h3.569h46.08h3.569v-3.568V904.07
			v-3.57H508.257z"/>
		<polygon fill="#B2EBF2" points="762.829,775.08 762.829,728.838 762.829,722.997 768.67,722.997 814.75,722.997 820.592,722.997 
			820.592,728.838 820.592,775.08 820.592,780.759 814.75,780.759 768.67,780.759 762.829,780.759 		"/>
		<path fill="#FFF8E1" d="M760.721,775.08v-46.242v-5.841c0-1.136,0.973-2.109,2.108-2.109h5.841h46.08h5.842
			c1.135,0,2.108,0.975,2.108,2.109v5.841v46.242v5.679c0,1.137-0.975,2.108-2.108,2.108h-5.842h-46.08h-5.841
			c-1.137,0-2.108-0.974-2.108-2.108V775.08z M765.102,728.838v46.242v3.569h3.568h46.08h3.569v-3.569v-46.242v-3.569h-3.569h-46.08
			h-3.568V728.838z"/>
		<polygon fill="#B2EBF2" points="762.829,864.318 762.829,818.238 762.829,812.397 768.67,812.397 814.75,812.397 820.592,812.397 
			820.592,818.238 820.592,864.318 820.592,870.159 814.75,870.159 768.67,870.159 762.829,870.159 		"/>
		<path fill="#FFF8E1" d="M760.721,864.318v-46.08v-5.841c0-1.137,0.973-2.109,2.108-2.109h5.841h46.08h5.842
			c1.135,0,2.108,0.974,2.108,2.109v5.841v46.08v5.841c0,1.136-0.975,2.108-2.108,2.108h-5.842h-46.08h-5.841
			c-1.137,0-2.108-0.974-2.108-2.108V864.318z M765.102,818.238v46.08v3.568h3.568h46.08h3.569v-3.568v-46.08v-3.731h-3.569h-46.08
			h-3.568V818.238z"/>
		<polygon fill="#B2EBF2" points="654.12,780.759 608.041,780.759 602.364,780.759 602.364,775.08 602.364,728.838 602.364,722.997 
			608.041,722.997 654.12,722.997 659.963,722.997 659.963,728.838 659.963,775.08 659.963,780.759 		"/>
		<path fill="#FFF8E1" d="M654.12,782.867h-46.08h-5.678c-1.299,0-2.271-0.974-2.271-2.108v-5.679v-46.242v-5.841
			c0-1.136,0.973-2.109,2.271-2.109h5.678h46.08h5.843c1.135,0,2.106,0.975,2.106,2.109v5.841v46.242v5.679
			c0,1.137-0.973,2.108-2.106,2.108H654.12z M608.041,778.649h46.079h3.732v-3.569v-46.242v-3.569h-3.732h-46.079h-3.568v3.569
			v46.242v3.569H608.041z"/>
		<polygon fill="#B2EBF2" points="688.356,780.759 682.516,780.759 682.516,775.08 682.516,728.838 682.516,722.997 
			688.356,722.997 734.436,722.997 740.278,722.997 740.278,728.838 740.278,775.08 740.278,780.759 734.436,780.759 		"/>
		<path fill="#FFF8E1" d="M688.356,782.867h-5.84c-1.137,0-2.109-0.974-2.109-2.108v-5.679v-46.242v-5.841
			c0-1.136,0.974-2.109,2.109-2.109h5.84h46.08h5.842c1.135,0,2.109,0.975,2.109,2.109v5.841v46.242v5.679
			c0,1.137-0.976,2.108-2.109,2.108h-5.842H688.356z M684.786,778.649h3.568h46.08h3.57v-3.569v-46.242v-3.569h-3.57h-46.08h-3.568
			v3.569v46.242V778.649z"/>
		<polygon fill="#B2EBF2" points="654.12,870.159 608.041,870.159 602.364,870.159 602.364,864.318 602.364,818.238 
			602.364,812.397 608.041,812.397 654.12,812.397 659.963,812.397 659.963,818.238 659.963,864.318 659.963,870.159 		"/>
		<path fill="#FFF8E1" d="M654.12,872.269h-46.08h-5.678c-1.299,0-2.271-0.974-2.271-2.108v-5.841v-46.08v-5.842
			c0-1.136,0.973-2.108,2.271-2.108h5.678h46.08h5.843c1.135,0,2.106,0.974,2.106,2.108v5.842v46.08v5.841
			c0,1.136-0.973,2.108-2.106,2.108H654.12z M608.041,867.888h46.079h3.732v-3.568v-46.08v-3.731h-3.732h-46.079h-3.568v3.731v46.08
			v3.568H608.041z"/>
		<polygon fill="#B2EBF2" points="682.516,864.318 682.516,818.238 682.516,812.397 688.356,812.397 734.436,812.397 
			740.278,812.397 740.278,818.238 740.278,864.318 740.278,870.159 734.436,870.159 688.356,870.159 682.516,870.159 		"/>
		<path fill="#FFF8E1" d="M680.406,864.318v-46.08v-5.841c0-1.137,0.974-2.109,2.109-2.109h5.84h46.08h5.842
			c1.135,0,2.109,0.974,2.109,2.109v5.841v46.08v5.841c0,1.136-0.976,2.108-2.109,2.108h-5.842h-46.08h-5.84
			c-1.137,0-2.109-0.974-2.109-2.108V864.318z M684.786,818.238v46.08v3.568h3.568h46.08h3.57v-3.568v-46.08v-3.731h-3.57h-46.08
			h-3.568V818.238z"/>
		<polygon fill="#B2EBF2" points="762.829,953.719 762.829,907.478 762.829,901.799 768.67,901.799 814.75,901.799 820.592,901.799 
			820.592,907.478 820.592,953.719 820.592,959.397 814.75,959.397 768.67,959.397 762.829,959.397 		"/>
		<path fill="#FFF8E1" d="M760.721,953.719v-46.241v-5.679c0-1.299,0.973-2.271,2.108-2.271h5.841h46.08h5.842
			c1.135,0,2.108,0.973,2.108,2.271v5.679v46.241v5.68c0,1.298-0.975,2.271-2.108,2.271h-5.842h-46.08h-5.841
			c-1.137,0-2.108-0.974-2.108-2.271V953.719z M765.102,907.478v46.241v3.569h3.568h46.08h3.569v-3.569v-46.241v-3.569h-3.569
			h-46.08h-3.568V907.478z"/>
		<polygon fill="#B2EBF2" points="682.516,953.719 682.516,907.478 682.516,901.799 688.356,901.799 734.436,901.799 
			740.278,901.799 740.278,907.478 740.278,953.719 740.278,959.397 734.436,959.397 688.356,959.397 682.516,959.397 		"/>
		<path fill="#FFF8E1" d="M680.406,953.719v-46.241v-5.679c0-1.299,0.974-2.271,2.109-2.271h5.84h46.08h5.842
			c1.135,0,2.109,0.973,2.109,2.271v5.679v46.241v5.68c0,1.298-0.976,2.271-2.109,2.271h-5.842h-46.08h-5.84
			c-1.137,0-2.109-0.974-2.109-2.271V953.719z M684.786,907.478v46.241v3.569h3.568h46.08h3.57v-3.569v-46.241v-3.569h-3.57h-46.08
			h-3.568V907.478z"/>
		<polygon fill="#B2EBF2" points="654.12,959.397 608.041,959.397 602.364,959.397 602.364,953.719 602.364,907.478 
			602.364,901.799 608.041,901.799 654.12,901.799 659.963,901.799 659.963,907.478 659.963,953.719 659.963,959.397 		"/>
		<path fill="#FFF8E1" d="M654.12,961.669h-46.08h-5.678c-1.299,0-2.271-0.974-2.271-2.271v-5.68v-46.241v-5.679
			c0-1.299,0.973-2.271,2.271-2.271h5.678h46.08h5.843c1.135,0,2.106,0.973,2.106,2.271v5.679v46.241v5.68
			c0,1.298-0.973,2.271-2.106,2.271H654.12z M608.041,957.288h46.079h3.732v-3.569v-46.241v-3.569h-3.732h-46.079h-3.568v3.569
			v46.241v3.569H608.041z"/>
		<rect x="318.584" y="821.159" fill="#1565C0" width="227.639" height="20.281"/>
		<rect x="536.489" y="656.636" fill="#1565C0" width="349.978" height="20.281"/>
		<rect x="639.842" y="1036.954" fill="#4E342E" width="143.106" height="173.609"/>
		<path fill="#FFF8E1" d="M639.842,1034.845h143.106c1.297,0,2.271,0.975,2.271,2.109v173.609c0,1.298-0.976,2.271-2.271,2.271
			H639.842c-1.136,0-2.107-0.974-2.107-2.271v-173.609C637.735,1035.818,638.706,1034.845,639.842,1034.845z M780.84,1039.226
			H641.95v169.229h138.89V1039.226z"/>
		<line fill="none" x1="711.397" y1="1037.766" x2="711.397" y2="1209.915"/>
		<path fill="#FFF8E1" d="M713.506,1037.766c0-1.136-0.976-2.108-2.109-2.108c-1.137,0-2.109,0.974-2.109,2.108v172.149
			c0,1.136,0.974,2.108,2.109,2.108c1.135,0,2.109-0.974,2.109-2.108V1037.766z"/>
		<rect x="667.102" y="1067.782" fill="#B2EBF2" width="18.658" height="112.115"/>
		<path fill="#FFF8E1" d="M667.102,1066.322h18.658c0.813,0,1.461,0.647,1.461,1.46v112.115c0,0.812-0.648,1.461-1.461,1.461
			h-18.658c-0.65,0-1.299-0.649-1.299-1.461v-112.115C665.803,1066.971,666.45,1066.322,667.102,1066.322z M684.299,1069.242
			h-15.738v109.194h15.738V1069.242z"/>
		<rect x="737.031" y="1067.782" fill="#B2EBF2" width="18.66" height="112.115"/>
		<path fill="#FFF8E1" d="M737.031,1066.322h18.66c0.812,0,1.459,0.647,1.459,1.46v112.115c0,0.812-0.647,1.461-1.459,1.461h-18.66
			c-0.811,0-1.459-0.649-1.459-1.461v-112.115C735.573,1066.971,736.221,1066.322,737.031,1066.322z M754.231,1069.242h-15.738
			v109.194h15.738V1069.242z"/>
	</g>
</g>
</svg>
