<?xml version="1.0" encoding="utf-8"?>
<!-- Generator: Adobe Illustrator 16.0.0, SVG Export Plug-In . SVG Version: 6.00 Build 0)  -->
<!DOCTYPE svg PUBLIC "-//W3C//DTD SVG 1.1//EN" "http://www.w3.org/Graphics/SVG/1.1/DTD/svg11.dtd" [
	<!ENTITY ns_extend "http://ns.adobe.com/Extensibility/1.0/">
	<!ENTITY ns_ai "http://ns.adobe.com/AdobeIllustrator/10.0/">
	<!ENTITY ns_graphs "http://ns.adobe.com/Graphs/1.0/">
	<!ENTITY ns_vars "http://ns.adobe.com/Variables/1.0/">
	<!ENTITY ns_imrep "http://ns.adobe.com/ImageReplacement/1.0/">
	<!ENTITY ns_sfw "http://ns.adobe.com/SaveForWeb/1.0/">
	<!ENTITY ns_custom "http://ns.adobe.com/GenericCustomNamespace/1.0/">
	<!ENTITY ns_adobe_xpath "http://ns.adobe.com/XPath/1.0/">
]>
<svg version="1.1"
	 id="Layer_1" xmlns:x="&ns_extend;" xmlns:i="&ns_ai;" xmlns:graph="&ns_graphs;" shape-rendering="geometricPrecision" text-rendering="geometricPrecision" image-rendering="optimizeQuality"
	 xmlns="http://www.w3.org/2000/svg" xmlns:xlink="http://www.w3.org/1999/xlink" x="0px" y="0px" width="781.463px"
	 height="781.341px" viewBox="238.037 477.329 781.463 781.341" enable-background="new 238.037 477.329 781.463 781.341"
	 xml:space="preserve">
<metadata  id="CorelCorpID_0Corel-Layer">
	<sfw  xmlns="&ns_sfw;">
		<slices></slices>
		<sliceSourceBounds  height="781.342" width="781.463" x="-54.963" y="29.829" bottomLeftOrigin="true"></sliceSourceBounds>
	</sfw>
</metadata>
<g id="Camada_x0020_1">
	<path fill="#8D6E63" d="M628.768,477.329c215.758,0,390.732,174.853,390.732,390.732c0,215.757-174.976,390.608-390.732,390.608
		s-390.73-174.853-390.73-390.608C238.036,652.182,413.011,477.329,628.768,477.329z"/>
	<g id="_309903504">
		<g>
			<path id="_5294484401" fill="#6D4C41" d="M842.326,686.737l177.052,177.172c0.122,1.344,0.122,2.687,0.122,4.151
				c0,20.392-1.588,40.538-4.641,60.196L842.326,755.726V686.737z"/>
			<path id="_529448248" fill="#6D4C41" d="M842.326,755.726l172.533,172.532c-2.687,17.217-6.472,34.067-11.232,50.429
				L813.023,788.083h1.222l1.1-0.122l1.221-0.366l1.221-0.366l1.223-0.365l1.221-0.61l1.221-0.611l1.223-0.731l1.343-0.854
				l1.222-0.854l1.221-0.979l1.222-0.977l1.1-1.1l1.222-1.099l1.099-1.1l1.1-1.222l1.1-1.221l0.977-1.222l0.978-1.343l0.978-1.345
				l0.854-1.343l0.854-1.343l0.854-1.345l0.611-1.343l0.732-1.466l0.487-1.343l0.488-1.343l0.488-1.345l0.244-1.221l0.244-1.343
				l0.243-1.223v-1.217H842.326z"/>
			<path id="_529449160" fill="#6D4C41" d="M813.023,788.083l190.604,190.604c-6.839,22.956-15.631,45.058-26.375,66.182
				L720.59,788.083H813.023z"/>
			<path id="_529449448" fill="#6D4C41" d="M658.928,787.473l295.856,295.857c-1.71,2.687-3.541,5.25-5.251,7.813L638.17,779.78
				l0.487,0.366l0.488,0.365l0.611,0.366l0.609,0.244l0.488,0.366l0.61,0.366l0.609,0.244l0.61,0.365l0.61,0.245l0.61,0.244
				l0.61,0.366l0.609,0.244l0.61,0.244l0.611,0.244l0.608,0.243l0.733,0.244l0.61,0.244l0.731,0.244l0.611,0.244l0.731,0.244
				l0.609,0.244l0.732,0.123l0.732,0.243l0.61,0.122l0.731,0.244l0.732,0.122l0.732,0.122l0.732,0.244l0.61,0.122l0.731,0.122
				l0.732,0.122L658.928,787.473z"/>
			<path id="_529449280" fill="#6D4C41" d="M638.17,779.78l311.363,311.363c-0.244,0.244-0.365,0.488-0.487,0.732L631.453,774.285
				l0.61,0.609l0.732,0.733l0.61,0.61l0.732,0.609l0.731,0.61l0.855,0.609l0.731,0.61l0.854,0.611L638.17,779.78z"/>
			<polygon id="_529448992" fill="#6D4C41" points="532.551,734.968 922.794,1125.212 922.794,1125.334 533.528,736.067 			"/>
			<path id="_529449232" fill="#6D4C41" d="M834.025,667.811l185.109,185.231c0.122,3.541,0.244,7.204,0.244,10.867L842.326,686.737
				v-1.223l-0.244-1.343l-0.243-1.343l-0.366-1.466l-0.366-1.344l-0.488-1.343l-0.609-1.466l-0.61-1.343l-0.732-1.344l-0.854-1.466
				l-0.854-1.344l-0.977-1.343l-0.978-1.221L834.025,667.811z"/>
			<path id="_529449256" fill="#6D4C41" d="M503.612,758.9l393.296,393.296c-0.366,0.365-0.854,0.731-1.222,1.1L497.629,755.359
				l0.487,0.487l0.488,0.366l0.488,0.366l0.61,0.488l0.61,0.365l0.61,0.367l0.61,0.244l0.732,0.366l0.61,0.244L503.612,758.9z"/>
			<path id="_529449592" fill="#6D4C41" d="M622.541,876.853l274.854,274.855c-17.949,17.095-37.608,32.357-58.488,45.789
				L576.264,934.852l1.832-0.977l1.954-1.099l1.832-1.223l1.831-1.221l1.832-1.221l1.832-1.345l1.709-1.343l1.832-1.465l1.709-1.466
				l1.71-1.587l1.587-1.588l1.711-1.709l1.587-1.71l1.588-1.709l1.587-1.832l1.466-1.831l1.465-1.832l1.465-1.953l1.466-1.954
				l1.344-2.075l1.344-1.954l1.221-2.075l1.222-2.197l1.221-2.198l1.222-2.197l1.1-2.198l0.977-2.197l1.1-2.319l0.978-2.32
				l0.854-2.441l0.854-2.319L622.541,876.853z"/>
			<path id="_529449616" fill="#6D4C41" d="M524.858,935.95l280.594,280.595c-1.099,0.61-2.197,1.099-3.297,1.71l-293.659-293.66
				l1.709,1.588l1.832,1.466l1.709,1.344l1.832,1.343l1.832,1.221l1.832,1.223l1.832,1.099l1.954,1.099L524.858,935.95z"/>
			<path id="_529449040" fill="#6D4C41" d="M556.115,1081.62l165.817,165.938c-2.931,0.732-5.983,1.344-9.036,2.076L545.005,1081.62
				H556.115z"/>
			<path id="_529449880" fill="#6D4C41" d="M545.005,1081.62l167.893,168.016c-27.106,5.86-55.19,9.035-84.13,9.035
				c-12.576,0-25.031-0.609-37.363-1.709L416.064,1081.62H545.005z"/>
			<path id="_529449736" fill="#6D4C41" d="M478.58,876.975l335.175,335.298c-2.197,1.099-4.273,2.319-6.472,3.418l-335.419-335.42
				l0.244,0.244l0.366,0.244l0.367,0.122l0.365,0.122l0.366,0.122h0.366h0.61l0.61-0.244l0.61-0.366l0.611-0.487l0.609-0.61
				l0.488-0.732l0.61-0.732L478.58,876.975z"/>
			<path id="_529450312" fill="#6D4C41" d="M684.814,1081.62l130.041,130.041c-28.938,15.751-60.075,27.84-92.921,35.897
				L556.115,1081.62H684.814z"/>
			<path id="_529449928" fill="#6D4C41" d="M576.264,934.852l262.645,262.646c-2.197,1.343-4.518,2.809-6.715,4.151l-255.93-255.931
				V934.852L576.264,934.852z"/>
			<path id="_529449952" fill="#6D4C41" d="M622.297,777.094l321.742,321.743c-8.059,10.867-16.605,21.368-25.642,31.381
				L630.722,842.419l0.244-1.099l0.366-1.222l0.243-1.222l0.367-1.221l0.244-1.222l0.244-1.222l0.244-1.221l0.244-1.222l0.244-1.344
				l0.243-1.221l0.244-1.343l0.244-1.223l0.122-1.343l0.244-1.221l0.244-1.344l0.122-1.344l0.122-1.222l0.244-1.343l0.122-1.222
				l0.123-1.344l0.12-1.221l0.123-1.343l0.121-1.223v-1.221l0.123-1.343l0.121-1.223v-1.221v-1.099l0.123-1.223v-1.221v-1.099
				v-1.223v-1.343l-0.244-1.466l-0.244-1.465l-0.367-1.466l-0.609-1.587l-0.61-1.587l-0.731-1.589l-0.732-1.587l-0.978-1.588
				l-0.978-1.709l-1.099-1.71l-1.222-1.587l-1.344-1.71l-1.465-1.709l-1.466-1.709L622.297,777.094z"/>
			<path id="_529449976" fill="#6D4C41" d="M720.59,788.083l256.662,256.784c-12.454,24.421-27.353,47.498-44.567,68.622
				L647.573,828.377L720.59,788.083z"/>
			<path id="_529450072" fill="#6D4C41" d="M631.821,843.03l286.822,286.942c-6.96,7.692-14.164,15.142-21.734,22.224
				l-272.17-272.169l0.488,0.487l0.731,0.366l0.611,0.244h0.61h0.365l0.366-0.122l0.366-0.122l0.367-0.122l0.365-0.244l0.244-0.244
				l0.366-0.365l0.244-0.244l0.244-0.488l0.244-0.367l0.244-0.487l0.244-0.488l0.244-0.61l0.243-0.609l0.244-0.61l0.123-0.61
				l0.244-0.61l0.121-0.732l0.123-0.731l0.121-0.854l0.123-0.732l0.121-0.854l0.123-0.854l0.121-0.854l0.122-0.854v-0.979
				l0.121-0.854v-0.978v-0.977l0.123-0.979v-0.977v-0.978v-0.978v-0.978v-0.977v-0.854v-0.854v-0.978l0.122-0.854v-0.854v-0.733
				v-0.854v-0.731v-0.732v-0.731v-0.733v-0.731v-0.61l-0.122-0.61v-0.609l-0.123-0.61v-0.489l-0.121-0.487l-0.122-0.488
				l-0.121-0.366l-0.123-0.488l-0.121-0.365l-0.244-0.244l-0.123-0.366L631.821,843.03z"/>
			<path id="_529450168" fill="#6D4C41" d="M665.278,996.759l189.749,189.749c-0.854,0.732-1.832,1.343-2.809,2.075
				l-174.976-174.975l-0.609-1.709l-0.854-1.832l-0.978-1.831l-1.222-1.832l-1.343-1.831l-1.466-1.954l-1.709-1.831l-1.832-2.076
				L665.278,996.759z"/>
			<path id="_529450240" fill="#6D4C41" d="M585.055,937.782l257.395,257.395c-1.099,0.732-2.197,1.344-3.297,2.076L591.649,949.748
				L585.055,937.782z"/>
			<path id="_529450432" fill="#6D4C41" d="M591.649,949.748l247.504,247.505c-0.366,0.244-0.854,0.61-1.221,0.854L591.037,951.214
				L591.649,949.748z"/>
			<path id="_529450816" fill="#6D4C41" d="M677.242,1013.608l174.976,174.975c-11.966,8.304-24.421,16.118-37.363,23.078
				L684.814,1081.62l0.244-1.465l0.244-1.588l0.244-1.709l0.122-1.832l0.123-1.831v-1.954l0.12-1.953v-1.954l-0.12-2.075v-2.076
				l-0.123-2.196l-0.122-2.198l-0.244-2.198l-0.122-2.319l-0.244-2.319l-0.244-2.198l-0.366-2.318l-0.244-2.32l-0.365-2.442
				l-0.366-2.318l-0.366-2.32l-0.488-2.319l-0.366-2.319l-0.488-2.32l-0.488-2.319l-0.488-2.319l-0.487-2.198l-0.61-2.197
				l-0.609-2.197l-0.489-2.198l-0.61-2.075L677.242,1013.608z"/>
		</g>
		<path id="_309903432" fill="#6D4C41" d="M842.326,686.737v68.987c0,12.821-17.216,32.357-29.305,32.357H720.59l-73.019,40.294
			l11.355-40.904c-7.938-1.221-15.142-3.906-20.758-7.691c-9.035-5.861-14.53-14.408-14.53-24.056v-68.987
			c0-11.355,17.217-32.357,26.984-32.357H811.19C824.621,654.38,842.326,672.939,842.326,686.737L842.326,686.737z M596.288,953.411
			c35.531,15.508,75.46,42.248,80.954,60.197c6.595,21.489,10.623,52.017,7.57,68.012H556.115h-11.11H416.064
			c-2.931-17.094,2.442-50.551,9.646-72.285c4.884-14.652,44.445-39.439,79.733-54.702c1.709-0.854,3.541-1.588,5.25-2.32
			l-1.221-2.563l6.594-11.966l8.792,7.937v-9.769c-20.27-10.256-37.975-32.603-46.277-58.977c-1.343,2.564-2.931,4.151-4.64,4.151
			c-4.151,0-5.982-8.791-5.982-19.536c0-10.379-0.978-18.438,2.441-19.171c-3.419-12.332-5.25-27.717-5.25-39.806
			c0-12.698,15.263-31.503,38.463-43.714c-3.663-1.099-7.326-4.028-7.326-6.104c14.408,1.588,21.856-2.319,32.603-3.419
			c-2.442-2.319-3.053-5.616-3.907-9.523c1.343,1.222,10.012,6.716,11.355,6.35c-2.076-5.86-2.076-3.175-3.785-11.233
			c10.135,12.943,38.707,12.821,54.336,19.049c29.061,11.355,49.086,34.066,49.086,48.598c0,12.089-1.832,27.474-5.251,39.806
			c3.541,0.732,2.442,8.792,2.442,19.171c0,10.745-1.832,19.536-5.983,19.536c-1.71,0-3.419-1.587-4.64-4.273
			c-8.427,25.887-26.009,47.376-46.277,57.999v10.867l8.791-7.937l6.594,11.966l-0.609,1.466
			C592.747,951.946,594.456,952.679,596.288,953.411L596.288,953.411z"/>
	</g>
	<path fill="none" d="M628.768,477.329c215.758,0,390.732,174.853,390.732,390.732c0,215.757-174.976,390.608-390.732,390.608
		s-390.73-174.853-390.73-390.608C238.036,652.182,413.011,477.329,628.768,477.329z"/>
	<path fill="#FFB300" d="M650.625,654.38h160.565c13.431,0,31.136,18.561,31.136,32.357v68.987
		c0,12.821-17.216,32.357-29.305,32.357H720.59l-73.019,40.294l11.355-40.904c-7.938-1.221-15.142-3.906-20.758-7.691
		c-9.035-5.861-14.53-14.408-14.53-24.056v-68.987C623.64,675.382,640.857,654.38,650.625,654.38L650.625,654.38z"/>
	<path fill="#FF6E40" d="M416.064,1081.62h268.75c3.053-15.995-0.977-46.521-7.57-68.012
		c-8.181-26.618-91.578-72.285-125.034-72.651c-30.159-0.244-119.051,45.789-126.5,68.378
		C418.506,1031.069,413.133,1064.526,416.064,1081.62L416.064,1081.62z"/>
	<polygon fill="#D2A979" points="524.858,921.787 576.264,921.787 576.264,958.418 550.5,970.994 524.858,958.418 	"/>
	<path fill="#E5B680" d="M627.669,844.495c0,52.749-41.149,99.271-80.955,97.438c-37.242-1.587-73.263-48.107-73.263-97.438
		c0-87.549,38.829-93.043,74.605-93.775C587.496,749.986,627.669,752.917,627.669,844.495z"/>
	<path fill="#333333" d="M586.887,754.017c29.061,11.355,49.086,34.066,49.086,48.598c0,20.146-5.251,50.063-14.287,58.486
		c-2.197-66.058-38.218-58.976-73.506-58.364c-31.869,0.487-66.424-4.641-68.745,58.364c-9.036-8.425-14.286-38.34-14.286-58.486
		c0-12.698,15.263-31.503,38.463-43.713c-3.663-1.1-7.326-4.029-7.326-6.105c14.408,1.588,21.856-2.318,32.603-3.419
		c-2.442-2.319-3.053-5.616-3.907-9.522c1.343,1.221,10.012,6.715,11.355,6.349c-2.076-5.86-2.076-3.175-3.785-11.233
		C542.685,747.911,571.258,747.789,586.887,754.017L586.887,754.017z"/>
	<path fill="#E5B680" d="M471.01,842.419c4.151,0,10.379,8.304,10.379,19.171c0,10.745-3.297,19.536-7.448,19.536
		s-5.983-8.791-5.983-19.536C467.957,850.723,466.859,842.419,471.01,842.419L471.01,842.419z"/>
	<path fill="#E5B680" d="M630.112,842.419c-4.029,0-10.379,8.304-10.379,19.171c0,10.745,3.297,19.536,7.448,19.536
		c4.15,0,5.982-8.791,5.982-19.536C633.163,850.723,634.263,842.419,630.112,842.419L630.112,842.419z"/>
	<circle fill="#3E2723" cx="523.393" cy="849.868" r="6.837"/>
	<circle fill="#3E2723" cx="577.729" cy="849.868" r="6.837"/>
	<path fill="#039BE5" d="M550.378,968.553l14.651,8.304c2.932,8.912-5.982,14.041-14.408,14.163c-0.854,0-1.709,0-2.686-0.122
		c-7.448-0.731-14.408-5.86-11.844-14.041L550.378,968.553z"/>
	<polygon fill="#039BE5" points="534.747,1059.031 550.621,1075.76 566.372,1059.397 554.651,980.152 550.621,974.779 
		546.593,979.542 	"/>
	<polygon fill="#FF3D00" points="516.067,937.782 550.621,968.675 526.078,985.036 509.473,949.748 	"/>
	<polygon fill="#FF3D00" points="585.055,937.782 550.621,968.675 575.164,985.036 591.649,949.748 	"/>
	<path fill="#263238" d="M505.444,954.633c-35.288,15.263-74.85,40.05-79.733,54.702c-7.204,21.734-12.577,55.191-9.646,72.285
		h128.941L505.444,954.633L505.444,954.633z"/>
	<path fill="#263238" d="M595.922,954.146l-39.807,127.476h128.697c3.053-15.995-0.977-46.521-7.57-68.134
		c-5.494-17.827-45.423-44.567-80.954-60.075L595.922,954.146L595.922,954.146z"/>
	<path fill="#FF6F00" d="M689.575,717.629h2.687c3.541,0,5.982-0.488,7.447-1.343c1.467-0.978,2.198-2.564,2.198-4.884
		c0-2.442-0.731-4.151-2.076-5.129c-1.343-0.978-3.784-1.466-7.569-1.466h-2.687V717.629z M689.575,737.532h2.441
		c2.563,0,4.518-0.122,5.739-0.244c1.343-0.244,2.318-0.61,3.053-1.1c0.854-0.61,1.587-1.466,2.075-2.441
		c0.487-0.976,0.731-2.076,0.731-3.297c0-1.465-0.244-2.688-0.854-3.785c-0.61-0.977-1.465-1.832-2.563-2.442
		c-0.732-0.365-1.466-0.609-2.441-0.731c-0.854-0.244-2.076-0.244-3.541-0.244h-2.198h-2.441L689.575,737.532L689.575,737.532z
		 M682.371,743.638v-44.935h11.355c3.175,0,5.616,0.122,7.082,0.488c1.587,0.365,2.931,0.978,4.029,1.71
		c1.343,1.099,2.441,2.44,3.175,4.028c0.854,1.709,1.221,3.541,1.221,5.494c0,2.442-0.61,4.396-1.709,5.983
		c-1.1,1.71-2.687,2.809-4.763,3.419c2.563,0.366,4.641,1.587,6.104,3.541c1.587,1.953,2.32,4.518,2.32,7.448
		c0,1.83-0.366,3.541-0.979,5.251c-0.609,1.587-1.587,3.052-2.686,4.15c-1.222,1.222-2.809,2.075-4.641,2.688
		c-1.831,0.487-4.885,0.731-9.157,0.731h-11.354V743.638z"/>
	<path id="_x31_" fill="#FF6F00" d="M725.841,717.873h1.343c3.907,0,6.472-0.488,7.692-1.343c1.344-0.978,1.953-2.564,1.953-4.763
		c0-2.563-0.731-4.272-2.075-5.251c-1.344-1.099-3.907-1.587-7.57-1.587h-1.343V717.873z M725.475,723.49v20.146h-6.838v-44.935
		h10.135c2.93,0,5.25,0.122,6.959,0.609c1.588,0.366,3.053,0.978,4.152,1.832c1.465,1.1,2.563,2.564,3.297,4.273
		c0.731,1.709,1.099,3.541,1.099,5.617c0,3.662-0.854,6.471-2.563,8.425c-1.709,2.075-4.273,3.297-7.692,3.663l15.385,20.514h-8.181
		l-15.02-20.146L725.475,723.49L725.475,723.49z"/>
	<path id="_x32_" fill="#FF6F00" d="M778.712,720.682h17.703c0,0.244,0.123,0.732,0.123,1.223c0,1.465,0,2.44,0,2.93
		c0,6.35-1.71,11.234-5.373,14.775c-3.663,3.418-8.669,5.25-15.263,5.25c-3.785,0-6.96-0.61-9.891-1.709
		c-2.932-0.979-5.373-2.688-7.57-4.886c-2.076-2.196-3.785-4.64-4.884-7.569c-1.101-2.932-1.71-6.105-1.71-9.402
		c0-3.419,0.609-6.594,1.71-9.401c1.221-2.931,2.93-5.373,5.128-7.569c2.198-2.198,4.762-3.786,7.692-5.007
		c2.931-1.1,6.104-1.588,9.523-1.588c3.541,0,6.716,0.61,9.401,1.831c2.809,1.345,5.373,3.298,7.569,5.983l-5.372,4.029
		c-1.465-1.709-3.175-3.054-5.128-3.907c-1.953-0.854-4.029-1.343-6.35-1.343c-4.885,0-8.914,1.587-11.967,4.762
		c-3.052,3.053-4.64,7.082-4.64,12.088c0,5.129,1.588,9.28,4.64,12.333c3.053,3.175,7.082,4.762,11.967,4.762
		c4.151,0,7.448-0.977,9.891-2.931c2.441-1.953,3.541-4.518,3.541-7.937v-0.61H778.71v-6.106H778.712z"/>
</g>
</svg>
